<svg xmlns="http://www.w3.org/2000/svg" width="380" height="133" viewBox="0 0 380 133" version="1.1">
	<path d="M 182.822 14.324 C 174.248 17.939, 169.520 22.198, 165.888 29.576 C 162.885 35.676, 162.741 36.479, 163.313 43.902 C 163.646 48.228, 164.803 54.091, 165.882 56.932 L 167.845 62.098 163.443 68.299 C 161.021 71.710, 156.685 78.418, 153.807 83.206 L 148.573 91.911 146.280 86.475 C 144.230 81.612, 138.243 59.692, 136.660 51.250 L 136.050 48 140.486 48 C 147.222 48, 150.853 43.358, 149.550 36.413 C 148.681 31.780, 146 31.792, 146 36.429 C 146 39.721, 143.939 43, 141.870 43 C 141.326 43, 141.120 43.385, 141.411 43.856 C 141.702 44.326, 140.780 44.489, 139.363 44.219 C 137.811 43.922, 136.402 44.277, 135.818 45.113 C 135.014 46.262, 134.918 46.243, 135.255 45.006 C 135.479 44.184, 134.229 41.259, 132.477 38.506 C 130.638 35.614, 129.067 31.599, 128.759 29 C 127.825 21.115, 126.513 19.124, 120.410 16.330 C 115.731 14.188, 113.966 13.877, 109.656 14.435 C 103.536 15.228, 95.711 18.724, 96.652 20.245 C 97.013 20.830, 96.857 21.029, 96.304 20.688 C 95.153 19.976, 88.722 24.389, 89.612 25.279 C 90.942 26.608, 85.349 24.590, 83.600 23.109 C 81.770 21.560, 81.723 21.648, 82.339 25.500 C 82.690 27.700, 82.983 30.089, 82.989 30.809 C 82.995 31.529, 83.337 31.909, 83.750 31.655 C 84.441 31.227, 84.890 33.392, 85.014 37.750 C 85.042 38.712, 84.767 43.212, 84.404 47.750 C 83.832 54.887, 83.957 56, 85.326 56 C 86.376 56, 87.123 57.263, 87.544 59.750 C 87.893 61.813, 88.827 67.100, 89.618 71.500 C 90.410 75.900, 91.541 82.200, 92.132 85.500 C 92.723 88.800, 94.735 98.569, 96.603 107.209 C 98.471 115.849, 100 123.585, 100 124.400 C 100 125.215, 100.376 126.114, 100.835 126.398 C 101.724 126.947, 100.581 120.439, 97.076 105 C 95.214 96.794, 92.684 83.379, 88.968 62 C 88.442 58.975, 88.009 53.760, 88.006 50.411 L 88 44.323 93.928 44.267 C 98.988 44.219, 99.780 44.452, 99.335 45.855 C 99.038 46.794, 99.703 46.427, 100.885 45 L 102.956 42.500 102.978 46.816 C 103 51.169, 104.369 55, 105.901 55 C 106.358 55, 108.156 51.815, 109.897 47.922 C 112.259 42.640, 112.932 39.913, 112.552 37.172 C 112.141 34.208, 112.213 33.982, 112.922 36 C 113.752 38.362, 113.806 38.379, 113.900 36.295 C 113.977 34.608, 114.763 33.972, 117.250 33.583 C 123.638 32.587, 127.852 32.431, 127.371 33.209 C 127.102 33.644, 127.351 34, 127.924 34 C 130.022 34, 134.103 44.313, 136.924 56.746 C 140.602 72.958, 143.234 82.218, 145.917 88.381 C 147.402 91.794, 147.851 94.276, 147.409 96.631 C 146.249 102.814, 145.035 101.167, 141.948 89.221 C 140.914 85.218, 139.568 81.168, 138.958 80.221 C 137.952 78.659, 137.904 78.675, 138.449 80.395 C 138.778 81.437, 139.904 85.557, 140.951 89.552 C 141.997 93.546, 143.546 98.155, 144.393 99.793 C 145.475 101.885, 145.758 104.249, 145.345 107.739 L 144.756 112.707 133.219 113.690 C 122.044 114.642, 121.592 114.773, 118.841 117.852 C 117.278 119.601, 116.041 122.037, 116.090 123.266 C 116.158 124.954, 116.412 124.697, 117.129 122.212 C 118.589 117.147, 122.524 115.354, 133.810 114.610 C 145.664 113.829, 169.534 115.368, 171.553 117.044 C 172.357 117.711, 173.655 120.337, 174.438 122.878 C 175.220 125.420, 175.892 126.698, 175.930 125.718 C 176.030 123.167, 173.601 117.742, 171.627 116.104 C 170.539 115.202, 165.884 114.457, 158.448 113.997 C 152.125 113.605, 146.657 112.991, 146.298 112.631 C 144.994 111.328, 148.120 96.347, 150.965 90.264 C 152.569 86.835, 157.109 79.347, 161.055 73.625 L 168.228 63.222 173.626 67.003 C 183.235 73.734, 197.494 75.717, 210.009 72.064 C 218.462 69.596, 226.015 58.026, 226.780 46.376 C 227.679 32.658, 221.935 21.552, 210.804 15.486 C 206.374 13.073, 204.100 12.542, 197 12.263 C 189.802 11.980, 187.630 12.296, 182.822 14.324 M 183.230 15.157 C 172.176 19.616, 164.030 30.230, 164.010 40.201 C 163.997 46.268, 165.743 54.412, 168.170 59.610 C 174.486 73.137, 205.419 77.643, 216.839 66.700 C 225.205 58.683, 228.006 45.930, 224.163 33.349 C 221.548 24.787, 217.849 20.264, 210.356 16.467 C 202.511 12.492, 191.191 11.946, 183.230 15.157 M 263.466 20.250 C 263.207 20.938, 260.147 32.525, 256.666 46 L 250.337 70.500 253.846 74.224 L 257.356 77.949 241.428 78.270 L 225.500 78.591 241.873 78.704 C 254.731 78.793, 258.557 79.128, 259.696 80.267 C 260.963 81.535, 260.421 81.957, 255.403 83.609 C 245.244 86.954, 245.695 91.087, 256.437 93.073 C 259.708 93.678, 264.939 93.855, 268.230 93.473 C 273.474 92.865, 274.408 93.035, 276.474 94.976 C 277.842 96.260, 279.749 97.027, 281.092 96.832 C 283.016 96.553, 283.861 95.028, 286.401 87.250 C 290.868 73.568, 291.061 73.687, 305 98.694 C 311.325 110.041, 316.650 119.702, 316.833 120.163 C 317.017 120.623, 290.811 121, 258.599 121 L 200.031 121 200.644 114.750 C 200.981 111.313, 201.572 108.150, 201.957 107.722 C 202.341 107.294, 204.646 107.847, 207.078 108.950 C 209.510 110.053, 212.350 110.966, 213.390 110.978 C 214.429 110.990, 215.816 111.734, 216.472 112.631 C 219.201 116.363, 231.999 114.959, 232.792 110.841 C 233.445 107.451, 219.686 105.456, 216.643 108.500 C 215.818 109.325, 214.473 110, 213.654 110 C 211.577 110, 203.356 106.385, 202.581 105.131 C 202.229 104.561, 202.467 99.995, 203.110 94.983 L 204.278 85.871 208.047 86.508 C 210.120 86.858, 213.380 86.713, 215.292 86.185 L 218.767 85.225 219.929 94.281 C 220.567 99.261, 221.321 103.711, 221.604 104.168 C 221.887 104.626, 224.904 104.924, 228.309 104.832 L 234.500 104.664 228.500 104.020 C 224.666 103.608, 228.016 103.398, 237.780 103.438 C 250.323 103.489, 253.229 103.231, 254.006 102 C 254.738 100.840, 252.636 98.184, 244.726 90.275 L 234.500 80.050 219.250 79.371 L 204 78.692 204 81.430 C 204 83.184, 203.551 84.011, 202.750 83.732 C 201.965 83.459, 201.568 81.660, 201.682 78.899 C 201.781 76.479, 201.650 75.400, 201.389 76.500 C 200.494 80.275, 193.782 99, 193.324 99 C 191.559 99, 184.953 92.436, 180.877 86.630 C 178.194 82.811, 176 80.157, 176 80.733 C 176 82.635, 184.747 93.702, 188.867 97.013 L 192.914 100.266 191.343 103.383 C 190.479 105.097, 188.586 107.824, 187.136 109.442 L 184.500 112.384 187.101 110.767 C 189.662 109.174, 189.726 109.201, 191.351 112.609 C 192.258 114.511, 193 116.701, 193 117.475 C 193 118.249, 193.421 119.142, 193.936 119.460 C 195.139 120.204, 193.789 115.426, 191.599 111.192 C 190.065 108.225, 190.065 107.771, 191.601 104.750 C 192.511 102.963, 193.379 101.355, 193.532 101.178 C 193.685 101.002, 195.437 101.902, 197.427 103.178 C 200.083 104.884, 200.919 106.031, 200.576 107.500 C 199.334 112.815, 198.786 125, 199.789 125 C 200.374 125, 201.059 125.787, 201.311 126.750 C 201.746 128.417, 201.774 128.417, 201.884 126.750 C 201.993 125.106, 205.330 125, 257 125 C 305.222 125, 312 125.185, 312 126.500 C 312 127.325, 312.450 128, 313 128 C 313.550 128, 314 127.325, 314 126.500 C 314 125.675, 314.852 125, 315.893 125 C 320.216 125, 318.950 121.576, 306.414 99.367 C 296.908 82.525, 293.321 77, 291.894 77 C 290.852 77, 290 76.787, 290 76.527 C 290 76.266, 294.028 63.798, 298.950 48.819 C 305.557 28.714, 307.620 21.247, 306.828 20.292 C 305.303 18.455, 264.158 18.415, 263.466 20.250 M 346.558 20.431 C 344.390 21.237, 341.470 22.752, 340.070 23.797 C 337.039 26.060, 332.126 34.119, 331.320 38.150 C 330.421 42.644, 332.905 49.610, 337.108 54.385 C 341.499 59.374, 346.141 61, 355.992 61 C 364.645 61, 368.462 58.664, 372.659 50.797 C 376.935 42.784, 372.865 26.552, 365.427 21.955 C 360.938 19.180, 351.889 18.450, 346.558 20.431 M 264.651 20.750 C 264.394 21.163, 268.080 21.452, 272.842 21.393 L 281.500 21.286 273.528 21.893 L 265.556 22.500 264.355 26.500 C 263.694 28.700, 263.119 31.738, 263.077 33.250 C 263.014 35.484, 263.437 36, 265.326 36 C 266.605 36, 268.708 34.875, 270 33.500 C 272.689 30.637, 274.516 30.213, 273.573 32.670 C 273.220 33.591, 273.508 34.706, 274.216 35.155 C 276.714 36.740, 278 36.007, 278 33 C 278 29.549, 279.946 28.856, 280.106 32.250 C 280.204 34.322, 280.299 34.283, 281.299 31.750 C 282.725 28.142, 284 28.249, 284 31.977 C 284 34.085, 284.764 35.455, 286.619 36.670 C 289.204 38.364, 289.271 38.343, 291.977 35.028 C 294.474 31.969, 294.807 31.832, 295.731 33.484 C 296.591 35.020, 297.070 34.429, 298.873 29.611 C 300.043 26.484, 301 23.734, 301 23.501 C 301 23.268, 297.063 22.928, 292.250 22.745 L 283.500 22.411 292.750 22.206 C 297.837 22.093, 302 22.334, 302 22.742 C 302 24.779, 278.385 92, 277.669 92 C 277.212 92, 271.586 87.359, 265.169 81.686 C 253.791 71.629, 246.385 66.023, 254.630 73.709 C 274.616 92.340, 279.025 96.092, 279.478 94.853 C 283.529 83.750, 304 22.438, 304 21.407 C 304 20.246, 300.600 20, 284.559 20 C 273.866 20, 264.908 20.337, 264.651 20.750 M 347.648 20.967 C 340.084 23.392, 332 33.592, 332 40.711 C 332 45.097, 337.009 54.173, 340.823 56.699 C 345.239 59.623, 352.339 60.637, 356.921 58.998 C 363.419 56.673, 363.561 56.641, 362.500 57.756 C 361.950 58.333, 360.600 59.022, 359.500 59.287 C 358.052 59.635, 358.295 59.800, 360.382 59.884 C 364.314 60.042, 371.393 52.968, 372.899 47.375 C 375.026 39.477, 371.069 27.292, 364.903 22.751 C 361.921 20.554, 352.102 19.539, 347.648 20.967 M 292.859 58.513 C 285.669 79.834, 280.709 95.997, 281.359 95.994 C 281.986 95.990, 287.848 79.678, 294.384 59.744 C 300.921 39.810, 306.471 22.938, 306.718 22.250 C 306.965 21.563, 306.792 21.006, 306.333 21.013 C 305.875 21.019, 299.811 37.894, 292.859 58.513 M 355.439 22.098 C 355.116 22.622, 355.222 22.985, 355.676 22.906 C 360.902 21.998, 367.082 26.856, 369.416 33.708 C 372.092 41.561, 371.192 48.018, 366.763 52.746 C 365.606 53.981, 364.927 55.260, 365.254 55.588 C 365.582 55.915, 367.121 54.261, 368.675 51.911 C 371.074 48.282, 371.493 46.647, 371.454 41.069 C 371.382 30.816, 367.112 24.327, 358.887 21.967 C 357.204 21.485, 355.785 21.539, 355.439 22.098 M 345.798 23.362 C 342.611 24.776, 338.259 28.683, 336.733 31.500 C 335.383 33.994, 334.018 41.107, 335.008 40.495 C 335.409 40.247, 336.016 38.302, 336.356 36.173 C 337.426 29.482, 342.848 24.581, 351 22.936 C 354.373 22.256, 354.391 22.229, 351.500 22.196 C 349.850 22.178, 347.284 22.702, 345.798 23.362 M 352.192 25.075 C 352.389 25.666, 352.978 26.150, 353.500 26.150 C 354.022 26.150, 354.611 25.666, 354.808 25.075 C 355.005 24.484, 354.417 24, 353.500 24 C 352.583 24, 351.995 24.484, 352.192 25.075 M 345 27.559 C 345 28.416, 345.450 28.840, 346 28.500 C 346.550 28.160, 347 27.459, 347 26.941 C 347 26.423, 346.550 26, 346 26 C 345.450 26, 345 26.702, 345 27.559 M 361 27 C 361 27.550, 361.450 28, 362 28 C 362.550 28, 363 27.550, 363 27 C 363 26.450, 362.550 26, 362 26 C 361.450 26, 361 26.450, 361 27 M 262.079 28.583 C 262.127 29.748, 262.364 29.985, 262.683 29.188 C 262.972 28.466, 262.936 27.603, 262.604 27.271 C 262.272 26.939, 262.036 27.529, 262.079 28.583 M 261.079 32.583 C 261.127 33.748, 261.364 33.985, 261.683 33.188 C 261.972 32.466, 261.936 31.603, 261.604 31.271 C 261.272 30.939, 261.036 31.529, 261.079 32.583 M 339 32 C 339 32.550, 339.702 33, 340.559 33 C 341.416 33, 341.840 32.550, 341.500 32 C 341.160 31.450, 340.459 31, 339.941 31 C 339.423 31, 339 31.450, 339 32 M 365.597 31.844 C 365.251 32.404, 365.455 33.163, 366.050 33.531 C 367.588 34.481, 368.580 33.180, 367.296 31.896 C 366.578 31.178, 366.019 31.161, 365.597 31.844 M 269.523 34.970 C 268.134 36.508, 266.715 37.038, 264.757 36.751 C 262.358 36.399, 261.844 36.772, 261.074 39.421 C 260.525 41.314, 260.146 41.761, 260.090 40.583 C 260.041 39.529, 259.753 38.914, 259.451 39.215 C 259.150 39.517, 259.196 40.934, 259.555 42.364 L 260.208 44.965 262.071 42.732 C 263.921 40.515, 263.934 40.514, 263.967 42.597 C 264.008 45.178, 266.806 48.489, 269.532 49.182 C 271.321 49.637, 271.517 49.302, 271.174 46.364 C 270.922 44.209, 271.518 41.787, 272.859 39.515 C 274.439 36.837, 274.601 36, 273.540 36 C 272.773 36, 272.001 35.275, 271.823 34.390 C 271.552 33.037, 271.184 33.130, 269.523 34.970 M 292 36.500 C 291.264 37.875, 290.072 39, 289.350 39 C 288.377 39, 288.192 40.124, 288.635 43.350 C 289.273 48.007, 287.859 52, 285.572 52 C 284.243 52, 283 54.065, 283 56.273 C 283 56.883, 283.606 56.553, 284.347 55.540 C 285.295 54.244, 285.909 54.044, 286.416 54.865 C 286.813 55.507, 287.557 55.774, 288.069 55.457 C 288.581 55.141, 289 55.411, 289 56.058 C 289 56.741, 288.162 57.014, 287 56.710 C 285.900 56.423, 285 56.487, 285 56.853 C 285 57.219, 285.900 58.081, 287 58.768 C 289.104 60.082, 289.062 60.150, 289.398 54.912 C 289.454 54.038, 290 52.688, 290.610 51.912 C 291.221 51.135, 292.646 47.709, 293.779 44.297 C 296.504 36.083, 295.225 30.474, 292 36.500 M 260.079 36.583 C 260.127 37.748, 260.364 37.985, 260.683 37.188 C 260.972 36.466, 260.936 35.603, 260.604 35.271 C 260.272 34.939, 260.036 35.529, 260.079 36.583 M 359.493 35.989 C 359.839 36.548, 359.453 36.727, 358.604 36.401 C 356.754 35.692, 351 38.956, 351 40.716 C 351 41.422, 351.491 42, 352.091 42 C 352.691 42, 355.022 43.575, 357.271 45.500 C 363.379 50.728, 365.455 49.766, 359.527 44.455 C 355.661 40.991, 355 40, 356.555 40 C 358.821 40, 363 37.370, 363 35.943 C 363 35.424, 362.073 35, 360.941 35 C 359.809 35, 359.157 35.445, 359.493 35.989 M 337 38 C 337 38.550, 337.450 39, 338 39 C 338.550 39, 339 38.550, 339 38 C 339 37.450, 338.550 37, 338 37 C 337.450 37, 337 37.450, 337 38 M 114.593 38.850 C 114.304 39.317, 116.240 39.491, 118.895 39.236 C 122.340 38.905, 124.550 39.265, 126.611 40.495 L 129.500 42.217 127.139 40.109 C 125.428 38.581, 123.448 38, 119.948 38 C 117.292 38, 114.882 38.382, 114.593 38.850 M 365.192 40.075 C 365.389 40.666, 365.978 41.150, 366.500 41.150 C 367.022 41.150, 367.611 40.666, 367.808 40.075 C 368.005 39.484, 367.417 39, 366.500 39 C 365.583 39, 364.995 39.484, 365.192 40.075 M 181.250 42.031 C 176.671 43.872, 179.142 44.932, 188.669 45.214 C 198.936 45.518, 201.373 46.774, 196.006 48.998 C 194.317 49.697, 193.133 50.467, 193.375 50.708 C 194.251 51.584, 200 47.910, 200 46.474 C 200 45.663, 200.450 45, 201 45 C 202.614 45, 202.146 42.270, 200.418 41.607 C 198.023 40.688, 183.810 41.002, 181.250 42.031 M 211.463 42.060 C 210.574 43.499, 212.832 48.722, 214.643 49.417 C 215.559 49.768, 215.844 49.557, 215.407 48.850 C 214.912 48.049, 215.765 47.921, 218.355 48.407 C 220.761 48.858, 222 48.715, 222 47.986 C 222 47.379, 221.620 47.117, 221.156 47.403 C 219.982 48.129, 213.216 46.159, 212.411 44.857 C 211.962 44.129, 213.107 43.977, 215.999 44.382 C 221.180 45.106, 225 44.262, 225 42.392 C 225 40.687, 212.500 40.382, 211.463 42.060 M 181.500 43 C 180.170 43.572, 182.431 43.883, 188.250 43.930 C 193.464 43.972, 197 43.596, 197 43 C 197 41.782, 184.335 41.782, 181.500 43 M 198 43 C 198 43.550, 198.450 44, 199 44 C 199.550 44, 200 43.550, 200 43 C 200 42.450, 199.550 42, 199 42 C 198.450 42, 198 42.450, 198 43 M 213.083 42.358 C 214.141 43.269, 221 43.770, 221 42.937 C 221 42.422, 219.125 42, 216.833 42 C 214.542 42, 212.854 42.161, 213.083 42.358 M 92.813 43.683 C 93.534 43.972, 94.397 43.936, 94.729 43.604 C 95.061 43.272, 94.471 43.036, 93.417 43.079 C 92.252 43.127, 92.015 43.364, 92.813 43.683 M 258.368 48 L 258.279 53.500 264.694 53.162 C 269.024 52.934, 270.974 52.447, 270.694 51.662 C 270.466 51.023, 269.317 50.607, 268.140 50.738 C 266.805 50.887, 266 50.416, 266 49.488 C 266 48.670, 265.599 48, 265.108 48 C 264.618 48, 263.908 46.769, 263.530 45.264 C 262.931 42.876, 262.720 42.749, 261.872 44.264 C 260.626 46.491, 259.242 46.485, 258.802 44.250 C 258.613 43.288, 258.417 44.975, 258.368 48 M 335.044 44.290 C 334.927 49.053, 342.038 58.031, 345.885 57.977 C 346.773 57.965, 345.999 57.215, 344.164 56.311 C 340.459 54.485, 338.417 51.829, 336.423 46.241 C 335.689 44.183, 335.068 43.305, 335.044 44.290 M 338 45 C 338 45.550, 338.450 46, 339 46 C 339.550 46, 340 45.550, 340 45 C 340 44.450, 339.550 44, 339 44 C 338.450 44, 338 44.450, 338 45 M 274 46.800 C 274 47.790, 273.535 49.065, 272.967 49.633 C 271.640 50.960, 272.787 54, 274.615 54 C 275.634 54, 275.970 52.773, 275.846 49.500 C 275.687 45.305, 274 42.837, 274 46.800 M 190 47.542 C 186.221 48.411, 185.439 48.813, 187.500 48.827 C 189.150 48.837, 192.300 48.253, 194.500 47.528 C 199.524 45.872, 197.225 45.879, 190 47.542 M 204.558 46.907 C 204.249 47.405, 204.898 47.578, 205.999 47.290 C 208.334 46.679, 208.629 46, 206.559 46 C 205.766 46, 204.866 46.408, 204.558 46.907 M 131.087 48 C 131.048 48.825, 132.359 54.900, 134 61.500 C 135.641 68.100, 137.040 74.400, 137.108 75.500 C 137.216 77.236, 137.293 77.265, 137.696 75.714 C 137.952 74.732, 136.954 68.882, 135.480 62.714 C 132.449 50.030, 131.190 45.816, 131.087 48 M 257.079 48.583 C 257.127 49.748, 257.364 49.985, 257.683 49.188 C 257.972 48.466, 257.936 47.603, 257.604 47.271 C 257.272 46.939, 257.036 47.529, 257.079 48.583 M 365 48 C 365 48.550, 365.450 49, 366 49 C 366.550 49, 367 48.550, 367 48 C 367 47.450, 366.550 47, 366 47 C 365.450 47, 365 47.450, 365 48 M 98.504 52.531 C 98.802 54.164, 99.462 57.975, 99.969 61 C 100.826 66.107, 100.853 65.965, 100.345 59 C 100.044 54.875, 99.385 51.064, 98.880 50.531 C 98.317 49.937, 98.172 50.710, 98.504 52.531 M 341.500 51 C 341.160 51.550, 341.610 52, 342.500 52 C 343.390 52, 343.840 51.550, 343.500 51 C 343.160 50.450, 342.710 50, 342.500 50 C 342.290 50, 341.840 50.450, 341.500 51 M 256.079 52.583 C 256.127 53.748, 256.364 53.985, 256.683 53.188 C 256.972 52.466, 256.936 51.603, 256.604 51.271 C 256.272 50.939, 256.036 51.529, 256.079 52.583 M 359 53 C 359 53.550, 359.702 54, 360.559 54 C 361.416 54, 361.840 53.550, 361.500 53 C 361.160 52.450, 360.459 52, 359.941 52 C 359.423 52, 359 52.450, 359 53 M 350.469 54.050 C 349.519 55.588, 350.820 56.580, 352.104 55.296 C 352.822 54.578, 352.839 54.019, 352.156 53.597 C 351.596 53.251, 350.837 53.455, 350.469 54.050 M 258.343 54.701 C 257.707 55.142, 256.735 57.077, 256.183 59.002 C 255.632 60.926, 255.140 61.638, 255.090 60.583 C 255.041 59.529, 254.734 58.933, 254.409 59.258 C 254.083 59.583, 254.107 60.760, 254.460 61.874 C 255.120 63.952, 257.613 63.798, 259.326 61.573 C 259.900 60.827, 260.307 60.882, 260.659 61.750 C 260.938 62.438, 261.752 63, 262.467 63 C 263.182 63, 263.976 63.801, 264.232 64.780 C 264.772 66.845, 262.467 69.406, 260.924 68.453 C 260.347 68.096, 259 68.595, 257.931 69.563 C 256.862 70.530, 255.705 71.038, 255.358 70.692 C 255.012 70.346, 256.137 69.261, 257.858 68.281 C 262.209 65.804, 262.042 63.569, 257.559 64.297 C 255.385 64.650, 253.937 64.422, 253.627 63.678 C 253.357 63.030, 253.338 64.075, 253.587 66 C 253.940 68.739, 253.832 69.065, 253.089 67.500 C 252.362 65.968, 252.124 65.875, 252.070 67.104 C 252.012 68.423, 258.067 74.314, 268.176 82.773 C 269.692 84.042, 269.915 83.750, 270.524 79.686 C 271.090 75.915, 270.862 74.862, 269.099 73.099 C 267.944 71.944, 267 70.140, 267 69.089 C 267 66.259, 273.026 61.466, 276.117 61.837 C 276.457 61.878, 277.773 60.806, 279.042 59.456 C 280.325 58.089, 280.802 57, 280.115 57 C 279.437 57, 279.091 56.663, 279.345 56.250 C 279.600 55.837, 278.839 55.410, 277.655 55.300 C 266.379 54.253, 259.306 54.033, 258.343 54.701 M 282 59.059 C 282 59.641, 281.637 59.894, 281.193 59.619 C 280.749 59.345, 280.542 61.984, 280.732 65.485 C 281.030 70.956, 280.779 72.128, 278.943 73.838 C 276.988 75.660, 276.918 76.130, 278.105 79.414 C 278.818 81.386, 279.649 82.997, 279.951 82.993 C 280.253 82.989, 282.183 78.182, 284.240 72.311 C 287.734 62.339, 287.872 61.516, 286.335 59.818 C 284.532 57.826, 282 57.383, 282 59.059 M 349.762 58.707 C 351.006 58.946, 352.806 58.937, 353.762 58.687 C 354.718 58.437, 353.700 58.241, 351.500 58.252 C 349.300 58.263, 348.518 58.468, 349.762 58.707 M 277.222 63.222 C 276 64.444, 275 64.904, 275 64.244 C 275 62.287, 270.420 64.847, 268.925 67.640 C 267.811 69.721, 267.877 70.300, 269.394 71.780 C 271.065 73.410, 271.140 73.395, 270.829 71.500 C 270.633 70.306, 271.004 69.601, 271.750 69.750 C 272.438 69.888, 273 69.325, 273 68.500 C 273 66.703, 273.204 66.680, 276.374 68.124 C 279.402 69.504, 278.755 71.907, 275.453 71.544 C 272.731 71.245, 272.423 71.904, 271.468 80.061 C 270.826 85.539, 270.869 85.663, 274.317 88.293 L 277.817 90.963 278.841 88.027 C 279.686 85.601, 279.433 84.200, 277.382 79.947 C 274.645 74.275, 274.693 72.511, 277.582 72.504 C 279.240 72.501, 279.511 71.720, 279.585 66.750 C 279.631 63.587, 279.619 61, 279.557 61 C 279.495 61, 278.444 62, 277.222 63.222 M 101.126 72.500 C 101.006 76.949, 111.363 119.361, 113.049 121.330 C 113.800 122.207, 109.752 104.949, 107.811 99 C 107.183 97.075, 105.434 89.875, 103.924 83 C 102.414 76.125, 101.155 71.400, 101.126 72.500 M 205 82.455 C 205 84.442, 205.631 85.028, 208.315 85.531 C 213.156 86.440, 218.582 84.788, 218.175 82.530 C 217.914 81.085, 218.311 80.851, 220.175 81.350 C 221.454 81.693, 225.114 81.979, 228.309 81.986 C 231.787 81.995, 233.879 82.388, 233.521 82.966 C 232.708 84.282, 241.126 98.834, 243 99.353 C 243.825 99.581, 241.012 99.905, 236.750 100.071 C 221.905 100.653, 223.665 101.499, 222.277 93.111 C 221.605 89.046, 220.761 85.446, 220.402 85.111 C 219.770 84.519, 220.558 93.816, 221.588 99.107 L 222.096 101.714 235.654 102.417 C 243.112 102.804, 249.465 102.868, 249.773 102.560 C 250.081 102.252, 247.446 101.917, 243.917 101.817 L 237.500 101.633 245.244 101.067 L 252.988 100.500 243.570 91 L 234.152 81.500 227.826 80.867 C 224.347 80.519, 217.787 80.181, 213.250 80.117 C 205.126 80.002, 205 80.037, 205 82.455 M 219.500 83 C 219.840 83.550, 220.316 84, 220.559 84 C 220.802 84, 221 83.550, 221 83 C 221 82.450, 220.523 82, 219.941 82 C 219.359 82, 219.160 82.450, 219.500 83 M 261.503 83.990 C 260.717 86.465, 260.753 86.522, 263.666 87.416 C 266.829 88.388, 267.299 86.630, 264.564 84.060 L 262.189 81.829 261.503 83.990 M 230.239 84.250 C 230.489 84.938, 231.770 88.537, 233.087 92.250 C 235.120 97.981, 235.836 99, 237.824 99 C 239.113 99, 240.017 98.662, 239.833 98.250 C 237.997 94.119, 231.307 83.030, 230.643 83.017 C 230.172 83.008, 229.990 83.563, 230.239 84.250 M 236.064 85.440 C 236.924 86.573, 239.504 89.692, 241.797 92.372 C 244.091 95.052, 245.723 97.639, 245.425 98.122 C 245.126 98.605, 245.584 99, 246.441 99 C 248.973 99, 248.283 97.870, 241.216 90.440 C 237.522 86.557, 235.204 84.307, 236.064 85.440 M 254.702 84.680 C 249.919 86.084, 247.880 88.280, 249.685 90.085 C 251.289 91.689, 262.778 93.260, 267.608 92.536 C 272.087 91.864, 272.140 91.813, 270.381 89.869 C 269.253 88.622, 267.818 88.080, 266.514 88.407 C 263.112 89.261, 260.139 87.987, 259.807 85.534 C 259.506 83.314, 259.411 83.298, 254.702 84.680 M 197.274 91.911 L 194.268 99.822 197.213 101.999 C 198.832 103.196, 200.346 103.987, 200.577 103.756 C 201.394 102.939, 203.193 86.944, 202.632 85.483 C 201.516 82.575, 200.238 84.109, 197.274 91.911 M 222.338 87.250 C 222.647 89.037, 223.198 92.638, 223.563 95.250 C 223.928 97.862, 224.675 100, 225.222 100 C 225.769 100, 225.981 98.987, 225.692 97.750 C 225.403 96.513, 224.648 92.912, 224.013 89.750 C 222.807 83.746, 221.361 81.587, 222.338 87.250 M 224.364 86 C 226.594 97.903, 227.193 99.863, 228.452 99.380 C 229.546 98.960, 229.562 98.026, 228.542 94.160 C 227.859 91.569, 226.534 88.111, 225.598 86.475 C 224.006 83.693, 223.927 83.662, 224.364 86 M 228 86.924 C 228 87.432, 228.538 90.180, 229.196 93.030 C 230.276 97.706, 232.184 100.150, 233.627 98.706 C 234.391 97.942, 229.917 86, 228.866 86 C 228.390 86, 228 86.416, 228 86.924 M 291.564 97.104 C 291.930 97.696, 291.188 97.834, 289.677 97.455 C 288.307 97.111, 286.244 97.334, 285.093 97.950 C 283.239 98.942, 283 99.976, 283 107 C 283 116.219, 283.690 117, 291.839 117 C 296.661 117, 296.888 116.867, 299.405 112.572 C 302.664 107.012, 302.704 103.200, 299.535 100.195 C 297.043 97.832, 290.429 95.268, 291.564 97.104 M 288.750 99.662 C 289.438 99.940, 290.563 99.940, 291.250 99.662 C 291.938 99.385, 291.375 99.158, 290 99.158 C 288.625 99.158, 288.063 99.385, 288.750 99.662 M 260.717 102.994 C 259.949 104.090, 259.062 104.729, 258.746 104.413 C 257.661 103.328, 254 106.071, 254 107.968 C 254 109.681, 255.918 110.871, 259.533 111.402 C 260.240 111.506, 262.507 113.033, 264.570 114.795 C 266.634 116.558, 269.064 118, 269.970 118 C 275.254 118, 280.742 106.583, 277.292 102.770 C 274.843 100.064, 262.654 100.229, 260.717 102.994 M 261.549 102.921 C 261.035 103.753, 275.828 104.992, 276.971 104.213 C 277.230 104.036, 276.780 103.473, 275.971 102.961 C 274.062 101.754, 262.291 101.721, 261.549 102.921 M 256.104 105.914 C 253.755 107.402, 255.503 109.818, 258.513 109.242 C 260.386 108.884, 260.793 108.490, 259.875 107.923 C 259.153 107.476, 257.993 107.591, 257.284 108.180 C 256.368 108.939, 256 108.923, 256 108.122 C 256 107.078, 257.388 106.570, 259.324 106.906 C 259.778 106.985, 259.864 106.588, 259.515 106.025 C 258.746 104.780, 257.937 104.754, 256.104 105.914 M 261.843 108.500 C 262.469 113.101, 263.735 114, 269.587 114 C 273.846 114, 275.140 113.608, 275.965 112.066 C 277.416 109.354, 277.282 105.736, 275.750 106.266 C 275.008 106.523, 274.628 107.978, 274.814 109.849 C 275.051 112.233, 274.728 113, 273.485 113 C 272.179 113, 271.976 112.384, 272.500 110 C 273.108 107.232, 272.940 106.992, 270.329 106.900 L 267.500 106.801 270 106.040 C 271.773 105.500, 270.891 105.311, 266.968 105.389 L 261.435 105.500 261.843 108.500 M 267.562 116.100 C 268.268 117.243, 271.080 117.235, 272.897 116.085 C 273.855 115.478, 273.149 115.200, 270.650 115.200 C 268.646 115.200, 267.256 115.605, 267.562 116.100 M 200 123 C 200 123.655, 220.147 124, 258.441 124 C 296.323 124, 317.099 123.648, 317.500 123 C 317.909 122.338, 298.177 122, 259.059 122 C 220.353 122, 200 122.345, 200 123 M 1.762 132.707 C 3.006 132.946, 4.806 132.937, 5.762 132.687 C 6.718 132.437, 5.700 132.241, 3.500 132.252 C 1.300 132.263, 0.518 132.468, 1.762 132.707 M 12.750 132.737 C 15.638 132.939, 20.363 132.939, 23.250 132.737 C 26.138 132.535, 23.775 132.370, 18 132.370 C 12.225 132.370, 9.863 132.535, 12.750 132.737 " stroke="none" fill="black" fill-rule="evenodd"/>
</svg>